<?xml version="1.0" encoding="UTF-8"?>
<svg id="Layer_1" data-name="Layer 1" xmlns="http://www.w3.org/2000/svg" viewBox="0 0 2400 2400">
  <defs>
    <style>
      .cls-1, .cls-2, .cls-3 {
        fill-rule: evenodd;
      }

      .cls-1, .cls-4 {
        fill: #fff;
      }

      .cls-2 {
        fill: #fefefe;
      }

      .cls-3 {
        fill: #171717;
      }
    </style>
  </defs>
  <rect class="cls-4" width="2400" height="2400"/>
  <path class="cls-3" d="M767.4,923.08h127.66c.37-46.49,38.52-84.41,85.09-84.41h439.69c46.58,0,84.72,37.92,85.09,84.41h127.66c39.01,0,70.92,31.91,70.92,70.92v496.42c0,39.01-31.91,70.92-70.92,70.92h-865.19c-39.01,0-70.92-31.91-70.92-70.92v-496.42c0-39.01,31.91-70.92,70.92-70.92"/>
  <path class="cls-2" d="M1200,1023.05c109.67,0,198.57,88.9,198.57,198.57s-88.9,198.57-198.57,198.57-198.57-88.9-198.57-198.57,88.9-198.57,198.57-198.57"/>
  <path class="cls-3" d="M1200,1113.83c59.53,0,107.79,48.26,107.79,107.79s-48.26,107.79-107.79,107.79-107.79-48.26-107.79-107.79,48.26-107.79,107.79-107.79"/>
  <path class="cls-2" d="M1200,1091.13c23.9,0,43.28,19.38,43.28,43.28s-19.38,43.28-43.28,43.28-43.28-19.38-43.28-43.28,19.38-43.28,43.28-43.28"/>
  <path class="cls-1" d="M1544.04,986.07h90.3c5.32,0,9.67,4.35,9.67,9.68v38.7c0,5.32-4.35,9.68-9.67,9.68h-90.3c-5.32,0-9.67-4.35-9.67-9.68v-38.7c0-5.32,4.35-9.68,9.67-9.68"/>
</svg>