<?xml version="1.0" encoding="UTF-8"?>
<svg id="Layer_1" data-name="Layer 1" xmlns="http://www.w3.org/2000/svg" viewBox="0 0 2000 2000">
  <defs>
    <style>
      .cls-1 {
        fill: #3c3c3b;
      }
    </style>
  </defs>
  <rect class="cls-1" x="747.18" y="290.55" width="505.65" height="830.77" rx="252.82" ry="252.82"/>
  <path class="cls-1" d="M1384.9,900.15c-19.83,0-36.75,14.57-39.46,34.21-20.1,145.79-167.1,258.95-345.45,258.95s-325.35-113.16-345.45-258.95c-2.71-19.65-19.62-34.21-39.46-34.21h0c-24.44,0-43.05,21.77-39.4,45.94,25.41,168.45,188.72,327,391.53,342.63v347.1h-171.37c-20.33,0-36.81,16.48-36.81,36.81s16.48,36.81,36.81,36.81h408.28c20.33,0,36.81-16.48,36.81-36.81s-16.48-36.81-36.81-36.81h-171.37v-347.1c202.81-15.62,366.12-174.18,391.53-342.63,3.65-24.16-14.96-45.94-39.4-45.94Z"/>
</svg>