<?xml version="1.0" encoding="UTF-8"?>
<svg id="Layer_1" data-name="Layer 1" xmlns="http://www.w3.org/2000/svg" viewBox="0 0 2000 2000">
  <defs>
    <style>
      .cls-1 {
        fill: #3c3c3b;
      }
    </style>
  </defs>
  <rect class="cls-1" x="769.89" y="305.26" width="460.21" height="756.12" rx="230.11" ry="230.11"/>
  <path class="cls-1" d="M1350.32,860.08c-18.05,0-33.44,13.26-35.91,31.14-18.3,132.69-152.08,235.68-314.41,235.68s-296.11-102.99-314.41-235.68c-2.47-17.88-17.86-31.14-35.91-31.14h0c-22.24,0-39.18,19.82-35.86,41.81,23.13,153.31,171.76,297.62,356.35,311.84v315.91h-155.97c-18.5,0-33.5,15-33.5,33.5s15,33.5,33.5,33.5h371.59c18.5,0,33.5-15,33.5-33.5s-15-33.5-33.5-33.5h-155.97v-315.91c184.59-14.22,333.22-158.53,356.35-311.84,3.32-21.99-13.62-41.81-35.86-41.81Z"/>
</svg>