<?xml version="1.0" encoding="UTF-8"?>
<svg id="Layer_1" data-name="Layer 1" xmlns="http://www.w3.org/2000/svg" viewBox="0 0 900 900">
  <defs>
    <style>
      .cls-1 {
        fill-rule: evenodd;
      }

      .cls-2 {
        fill: #fff;
      }
    </style>
  </defs>
  <rect class="cls-2" width="900" height="900"/>
  <g>
    <path class="cls-1" d="M517.21,183.38c-50.62,0-98.42,22.09-131.14,60.65-61.34,72.23-52.51,180.92,19.73,242.28,31.05,26.36,70.53,40.89,111.19,40.89,50.63,0,98.41-22.09,131.13-60.63,29.75-34.98,44.05-79.46,40.3-125.22-3.71-45.79-25.05-87.37-60.04-117.07-31.04-26.37-70.52-40.9-111.17-40.9h0ZM517.02,592.06c-56.03,0-110.46-19.98-153.18-56.31-99.48-84.53-111.7-234.23-27.19-333.73,45.08-53.08,110.89-83.49,180.56-83.49,56.01,0,110.42,19.99,153.15,56.3,48.22,40.96,77.6,98.22,82.73,161.25,5.12,63.03-14.59,124.27-55.54,172.5-45.07,53.04-110.89,83.48-180.54,83.48h0Z"/>
    <polygon class="cls-1" points="340.25 613.57 290.82 571.61 360.08 490.02 409.56 532.02 340.25 613.57 340.25 613.57"/>
    <path class="cls-1" d="M236.35,770.03c-11.6,13.66-32.06,15.34-45.73,3.75l-33.07-28.1c-13.65-11.63-15.33-32.08-3.73-45.72l107.08-126.1c11.6-13.65,32.05-15.31,45.72-3.72l33.09,28.09c13.65,11.61,15.31,32.1,3.71,45.73l-107.07,126.07h0Z"/>
    <path class="cls-1" d="M563.19,237.85c5.65,23.49-32.36.76-73.64,10.6-41.33,9.86-70.32,48.66-75.96,25.1-5.6-23.48,39.79-53.75,64.64-60.43,28.34-7.64,79.35,1.22,84.96,24.74h0Z"/>
    <path class="cls-1" d="M611.05,256.66c-3.46,10.17-15.28,6.42-25.45,2.97-10.13-3.47-14.81-5.4-11.35-15.56,3.5-10.19,5.38-14.87,15.56-11.36,10.18,3.47,24.74,13.77,21.24,23.96h0Z"/>
  </g>
</svg>